<?xml version="1.0" encoding="UTF-8"?>
<svg version="1.1" xmlns="http://www.w3.org/2000/svg" width="512" height="512">
<path d="M0 0 C2.6484375 2.4765625 2.6484375 2.4765625 3.5859375 6.1015625 C3.6484375 9.4765625 3.6484375 9.4765625 2.6484375 12.4765625 C3.55335938 13.38148437 3.55335938 13.38148437 4.4765625 14.3046875 C11.6484375 21.4765625 11.6484375 21.4765625 13.76171875 23.77734375 C15.58922354 25.81327733 15.58922354 25.81327733 18.5859375 25.4140625 C21.6484375 25.4765625 21.6484375 25.4765625 24.1171875 27.55078125 C26.77581825 30.62379734 28.56153653 33.67820307 30.2109375 37.3515625 C30.50758301 37.99851074 30.80422852 38.64545898 31.10986328 39.31201172 C34.13350357 46.15689922 36.01424816 53.1842122 37.6484375 60.4765625 C37.8235083 61.23984863 37.9985791 62.00313477 38.17895508 62.78955078 C40.92924647 78.53042808 39.69131926 96.3313832 34.6484375 111.4765625 C34.28621094 112.61609375 33.92398437 113.755625 33.55078125 114.9296875 C25.06674728 139.20265249 6.29239648 158.33619208 -16.1015625 170.2265625 C-31.78837979 177.72214814 -48.49765599 181.17723264 -65.85546875 180.015625 C-66.67760864 179.96510986 -67.49974854 179.91459473 -68.34680176 179.86254883 C-70.34870092 179.73884005 -72.35018288 179.60840992 -74.3515625 179.4765625 C-74.34879712 180.37109131 -74.34603174 181.26562012 -74.34318256 182.18725586 C-74.27690208 203.96267151 -74.22727184 225.73806974 -74.19612598 247.51356506 C-74.18066338 258.04407374 -74.1595854 268.57451504 -74.12524414 279.10498047 C-74.09532328 288.2843499 -74.07598309 297.46367054 -74.06929702 306.64308739 C-74.06538933 311.50259824 -74.05621824 316.36196948 -74.03437233 321.22143555 C-74.01396478 325.79815836 -74.00773734 330.37468445 -74.01223946 334.95144844 C-74.01141617 336.62838371 -74.00547598 338.30532577 -73.99394608 339.9822216 C-73.91589817 351.9220945 -74.54681961 360.37132192 -83.1015625 369.4921875 C-90.67070468 376.16775039 -99.82532273 376.63476113 -109.46875 376.57421875 C-110.32590607 376.5728038 -111.18306213 376.57138885 -112.06619263 376.56993103 C-114.7863524 376.56436272 -117.50642788 376.55181614 -120.2265625 376.5390625 C-122.07812381 376.5340434 -123.92968641 376.52948121 -125.78125 376.52539062 C-130.30471965 376.51440367 -134.82812682 376.49716102 -139.3515625 376.4765625 C-139.34490067 377.14197556 -139.33823883 377.80738861 -139.33137512 378.4929657 C-139.26499571 385.41965909 -139.21975087 392.3462621 -139.18676758 399.27319336 C-139.17168288 401.85819163 -139.15121248 404.44316432 -139.12524414 407.02807617 C-139.08884808 410.7440421 -139.07183265 414.45966957 -139.05859375 418.17578125 C-139.04310989 419.33115891 -139.02762604 420.48653656 -139.01167297 421.67692566 C-139.01144638 422.75766861 -139.01121979 423.83841156 -139.01098633 424.9519043 C-139.00099358 426.37420601 -139.00099358 426.37420601 -138.99079895 427.82524109 C-139.42392661 431.00838038 -140.47935435 432.88814802 -142.3515625 435.4765625 C-145.50441302 437.05298776 -147.98913452 437.39587801 -151.3515625 436.4765625 C-154.45859127 434.3237523 -157.06976423 431.71010736 -159.74804688 429.05175781 C-162.22607536 426.61749475 -164.77078024 424.25551002 -167.30737305 421.88256836 C-169.51643679 419.81422832 -171.71807696 417.7382464 -173.91796875 415.66015625 C-178.07468476 411.73552733 -182.24218103 407.82255981 -186.4140625 403.9140625 C-187.38448486 403.00442749 -187.38448486 403.00442749 -188.37451172 402.07641602 C-191.83781767 398.83037336 -195.3029594 395.58630461 -198.76953125 392.34375 C-199.49454834 391.66513916 -200.21956543 390.98652832 -200.96655273 390.28735352 C-202.35224736 388.99039405 -203.73844816 387.69397511 -205.12524414 386.39819336 C-205.75164795 385.81175049 -206.37805176 385.22530762 -207.0234375 384.62109375 C-207.61310303 384.07590088 -208.20276855 383.53070801 -208.81030273 382.96899414 C-210.3515625 381.4765625 -210.3515625 381.4765625 -212.30859375 379.0859375 C-215.37137592 376.67319132 -218.54879152 376.91747205 -222.2890625 376.9140625 C-231.45535131 376.85525038 -231.45535131 376.85525038 -235.3515625 373.4765625 C-236.1640625 370.7890625 -236.1640625 370.7890625 -236.3515625 368.4765625 C-239.45735744 368.49935651 -242.55946734 368.57664069 -245.6640625 368.6640625 C-246.98567383 368.67276367 -246.98567383 368.67276367 -248.33398438 368.68164062 C-250.77146693 368.76505258 -252.98304035 368.890033 -255.3515625 369.4765625 C-257.28549992 371.81017816 -257.28549992 371.81017816 -258.3515625 374.4765625 C-261.87565195 376.98863628 -265.63789046 376.7569504 -269.79533386 376.73052979 C-270.54785866 376.73364977 -271.30038345 376.73676975 -272.07571203 376.73998427 C-274.59897543 376.74796556 -277.12199844 376.74164002 -279.64526367 376.73535156 C-281.45388937 376.73806148 -283.26251397 376.74162242 -285.07113647 376.74597168 C-289.98666384 376.75510109 -294.90210739 376.75154828 -299.81763625 376.74521351 C-304.96373837 376.74015251 -310.10983327 376.7448456 -315.25593567 376.74798584 C-323.90379118 376.75162683 -332.55161256 376.74682462 -341.19946289 376.73730469 C-351.18662581 376.72643708 -361.17370696 376.72993286 -371.16086787 376.7409575 C-379.73936924 376.75004713 -388.31784605 376.75130693 -396.89635068 376.74608016 C-402.01791651 376.74296747 -407.13944397 376.74253151 -412.26100731 376.74915314 C-417.08154351 376.75494972 -421.90197491 376.75088745 -426.72249985 376.73936462 C-428.48769647 376.73672965 -430.25290198 376.73746318 -432.01809502 376.74188995 C-456.62834283 376.79789517 -456.62834283 376.79789517 -466.078125 367.83984375 C-472.32780725 360.98982256 -473.79959194 354.69248726 -473.73924255 345.6532135 C-473.74462809 344.68099159 -473.75001363 343.70876968 -473.75556237 342.7070865 C-473.76983829 339.45832176 -473.76273899 336.20996467 -473.75561523 332.96118164 C-473.76131896 330.62832817 -473.76828323 328.2954775 -473.77641296 325.96263123 C-473.79435871 319.63209174 -473.79317331 313.30169076 -473.78747058 306.97113347 C-473.78398991 301.01631149 -473.79194129 295.06151071 -473.79883123 289.10669332 C-473.81254906 276.59272623 -473.80712359 264.0788217 -473.79564602 251.56485604 C-473.78571378 240.12489154 -473.79865534 228.68508877 -473.82258021 217.2451492 C-473.84698209 205.48822312 -473.85657645 193.73137234 -473.84992748 181.97442144 C-473.84655587 175.37792211 -473.84898683 168.78155641 -473.86617851 162.18507576 C-473.8816387 155.98224804 -473.87770198 149.77972931 -473.85887337 143.57691383 C-473.85518503 141.30172536 -473.85830303 139.02651403 -473.86875916 136.75134659 C-473.88195339 133.64283971 -473.8704346 130.53535808 -473.85276794 127.42689514 C-473.86237295 126.52892702 -473.87197796 125.63095889 -473.88187402 124.70577961 C-473.78097231 116.0628728 -470.47159497 109.59659497 -464.3515625 103.4765625 C-457.1193146 98.68098594 -451.45624117 97.31850054 -442.82421875 97.23828125 C-441.9982872 97.2302095 -441.17235565 97.22213776 -440.32139587 97.21382141 C-438.57732217 97.20001624 -436.83322186 97.1892782 -435.08911133 97.18139648 C-433.30745518 97.16985157 -431.52583429 97.14936023 -429.74438477 97.11987305 C-427.16659099 97.07721565 -424.58982154 97.06103306 -422.01171875 97.05078125 C-421.21886978 97.03327316 -420.42602081 97.01576508 -419.60914612 96.99772644 C-415.68331224 97.01309138 -413.75335657 97.23358949 -410.31030273 99.31567383 C-408.3515625 101.4765625 -408.3515625 101.4765625 -408.3515625 104.4765625 C-405.24576756 104.45376849 -402.14365766 104.37648431 -399.0390625 104.2890625 C-398.15798828 104.28326172 -397.27691406 104.27746094 -396.36914062 104.27148438 C-393.92997294 104.18801476 -391.72118543 104.0656763 -389.3515625 103.4765625 C-387.28909243 101.1259078 -387.28909243 101.1259078 -386.3515625 98.4765625 C-383.00805638 96.80480944 -379.24535392 97.34399469 -375.56918335 97.35630798 C-374.18842115 97.35502635 -374.18842115 97.35502635 -372.77976477 97.35371882 C-369.67656204 97.35206374 -366.57341264 97.35758587 -363.47021484 97.36303711 C-361.25319927 97.363319 -359.03618361 97.36316121 -356.81916809 97.3625946 C-350.7843469 97.36230671 -344.74954543 97.3682022 -338.71472883 97.37516856 C-332.41395638 97.38140338 -326.11318351 97.382006 -319.81240845 97.38319397 C-309.23170638 97.38595283 -298.6510108 97.3922067 -288.0703125 97.40112305 C-277.17089881 97.41029844 -266.27148709 97.41737865 -255.37207031 97.42163086 C-254.36474748 97.42202494 -254.36474748 97.42202494 -253.33707468 97.42242699 C-249.96819993 97.423732 -246.59932517 97.42499572 -243.23045039 97.42623889 C-215.27081603 97.43670243 -187.31118978 97.45430115 -159.3515625 97.4765625 C-159.51323914 96.8702449 -159.67491577 96.26392731 -159.8414917 95.63923645 C-165.16055963 73.08666209 -158.03311781 46.44654605 -146.12890625 27.14453125 C-143.40930188 23.06213612 -140.51198387 19.22666417 -137.3515625 15.4765625 C-136.35189453 14.25839844 -136.35189453 14.25839844 -135.33203125 13.015625 C-102.44420544 -25.50164847 -39.79792605 -31.21104267 0 0 Z " fill="#B2E49E" transform="translate(473.3515625,47.5234375)"/>
<path d="M0 0 C1.11890625 0.350625 2.2378125 0.70125 3.390625 1.0625 C10.32364484 3.47398516 16.17458832 6.73514448 22.06884766 11.0534668 C26.19578872 13.95263369 29.01417259 14.48457105 34 14 C35.06541016 13.62294922 35.06541016 13.62294922 36.15234375 13.23828125 C38 13 38 13 40.25390625 14.73046875 C41.39666016 15.94669922 41.39666016 15.94669922 42.5625 17.1875 C43.32691406 17.98542969 44.09132813 18.78335938 44.87890625 19.60546875 C46.7091516 21.67165733 48.38900539 23.76107778 50 26 C49.690625 26.53625 49.38125 27.0725 49.0625 27.625 C47.53505412 31.03929078 46.37282395 34.11821967 47.60717773 37.82177734 C48.57446329 39.87539898 49.61697671 41.87330601 50.6875 43.875 C59.52281994 61.67647649 62.52472111 82.55824333 57 102 C48.47371925 126.86390565 33.95203558 145.9517496 10.11181641 157.64550781 C-1.46088771 163.15210453 -12.89269886 165.39558035 -25.6875 165.375 C-26.73824707 165.37338867 -27.78899414 165.37177734 -28.87158203 165.37011719 C-37.48889361 165.23512014 -44.85729942 163.93956612 -53 161 C-53.87011719 160.72285156 -54.74023438 160.44570312 -55.63671875 160.16015625 C-74.79502774 153.46554586 -92.14098956 137.2861609 -100.95898438 119.27148438 C-103.73007039 113.3452599 -106.34768124 107.34164595 -108 101 C-108.20367187 100.24589844 -108.40734375 99.49179688 -108.6171875 98.71484375 C-113.42452863 77.41107861 -109.15532215 55.07477597 -97.79492188 36.58959961 C-84.52228413 15.71954005 -65.10840319 2.40150299 -41 -3 C-27.12279646 -5.82118973 -13.35098065 -4.28132713 0 0 Z " fill="#FDDE7C" transform="translate(438,47)"/>
<path d="M0 0 C2.6640625 2.46875 2.6640625 2.46875 3.8515625 5.96875 C3.6640625 9.46875 3.6640625 9.46875 1.6640625 12.40625 C-2.10185853 14.99532071 -3.82822089 14.93800756 -8.3359375 14.46875 C-10.68380481 13.17238155 -12.64379087 11.92240427 -14.7734375 10.34375 C-22.18082232 5.23943412 -29.78037544 2.13958103 -38.3359375 -0.53125 C-39.40328125 -0.8715625 -40.470625 -1.211875 -41.5703125 -1.5625 C-61.61152625 -7.05603067 -83.18456477 -3.09351162 -101.3359375 6.46875 C-105.88137836 9.18527121 -110.12581679 12.2572563 -114.3359375 15.46875 C-115.08617187 16.03335938 -115.83640625 16.59796875 -116.609375 17.1796875 C-131.66320464 29.3774546 -141.87075144 50.46147433 -144.3359375 69.46875 C-145.85804452 95.15691228 -139.50269585 118.08714749 -122.2109375 137.59375 C-109.38855689 151.46816635 -89.85370806 162.30710642 -70.8190918 163.64575195 C-44.73939071 164.24679915 -22.34015464 159.18791381 -2.68676758 140.85986328 C6.74719124 131.713929 12.62369876 121.43103016 17.6640625 109.46875 C18.00308594 108.70691406 18.34210938 107.94507813 18.69140625 107.16015625 C25.46205056 90.95776863 24.95198858 68.76433188 18.6640625 52.46875 C16.97651344 48.6578334 15.18447301 44.90114904 13.21875 41.22558594 C10.98811338 36.9167813 10.136046 34.32412952 11.6640625 29.46875 C13.80841639 26.45077045 14.95150671 25.60519685 18.6015625 24.90625 C22.72549781 25.66370751 23.92221096 27.33339199 26.6640625 30.46875 C27.99769891 32.77003528 29.14486329 34.93471177 30.2265625 37.34375 C30.52320801 37.99069824 30.81985352 38.63764648 31.12548828 39.30419922 C34.14912857 46.14908672 36.02987316 53.1763997 37.6640625 60.46875 C37.8391333 61.23203613 38.0142041 61.99532227 38.19458008 62.78173828 C40.94487147 78.52261558 39.70694426 96.3235707 34.6640625 111.46875 C34.30183594 112.60828125 33.93960937 113.7478125 33.56640625 114.921875 C25.08237228 139.19483999 6.30802148 158.32837958 -16.0859375 170.21875 C-31.77275479 177.71433564 -48.48203099 181.16942014 -65.83984375 180.0078125 C-66.66198364 179.95729736 -67.48412354 179.90678223 -68.33117676 179.85473633 C-70.33307592 179.73102755 -72.33455788 179.60059742 -74.3359375 179.46875 C-74.33317212 180.36327881 -74.33040674 181.25780762 -74.32755756 182.17944336 C-74.26127708 203.95485901 -74.21164684 225.73025724 -74.18050098 247.50575256 C-74.16503838 258.03626124 -74.1439604 268.56670254 -74.10961914 279.09716797 C-74.07969828 288.2765374 -74.06035809 297.45585804 -74.05367202 306.63527489 C-74.04976433 311.49478574 -74.04059324 316.35415698 -74.01874733 321.21362305 C-73.99833978 325.79034586 -73.99211234 330.36687195 -73.99661446 334.94363594 C-73.99579117 336.62057121 -73.98985098 338.29751327 -73.97832108 339.9744091 C-73.90027317 351.914282 -74.53119461 360.36350942 -83.0859375 369.484375 C-90.65507968 376.15993789 -99.80969773 376.62694863 -109.453125 376.56640625 C-110.31028107 376.5649913 -111.16743713 376.56357635 -112.05056763 376.56211853 C-114.7707274 376.55655022 -117.49080288 376.54400364 -120.2109375 376.53125 C-122.06249881 376.5262309 -123.91406141 376.52166871 -125.765625 376.51757812 C-130.28909465 376.50659117 -134.81250182 376.48934852 -139.3359375 376.46875 C-139.32927567 377.13416306 -139.32261383 377.79957611 -139.31575012 378.4851532 C-139.24937071 385.41184659 -139.20412587 392.3384496 -139.17114258 399.26538086 C-139.15605788 401.85037913 -139.13558748 404.43535182 -139.10961914 407.02026367 C-139.07322308 410.7362296 -139.05620765 414.45185707 -139.04296875 418.16796875 C-139.02748489 419.32334641 -139.01200104 420.47872406 -138.99604797 421.66911316 C-138.99570808 423.29022758 -138.99570808 423.29022758 -138.99536133 424.9440918 C-138.98536858 426.36639351 -138.98536858 426.36639351 -138.97517395 427.81742859 C-139.40830161 431.00056788 -140.46372935 432.88033552 -142.3359375 435.46875 C-145.48878802 437.04517526 -147.97350952 437.38806551 -151.3359375 436.46875 C-154.44296627 434.3159398 -157.05413923 431.70229486 -159.73242188 429.04394531 C-162.21045036 426.60968225 -164.75515524 424.24769752 -167.29174805 421.87475586 C-169.50081179 419.80641582 -171.70245196 417.7304339 -173.90234375 415.65234375 C-178.05905976 411.72771483 -182.22655603 407.81474731 -186.3984375 403.90625 C-187.04538574 403.29982666 -187.69233398 402.69340332 -188.35888672 402.06860352 C-191.82219267 398.82256086 -195.2873344 395.57849211 -198.75390625 392.3359375 C-199.47892334 391.65732666 -200.20394043 390.97871582 -200.95092773 390.27954102 C-202.33662236 388.98258155 -203.72282316 387.68616261 -205.10961914 386.39038086 C-205.73602295 385.80393799 -206.36242676 385.21749512 -207.0078125 384.61328125 C-207.59747803 384.06808838 -208.18714355 383.52289551 -208.79467773 382.96118164 C-210.3359375 381.46875 -210.3359375 381.46875 -212.29296875 379.078125 C-215.35575092 376.66537882 -218.53316652 376.90965955 -222.2734375 376.90625 C-227.8179859 376.87067545 -232.20883301 376.59585449 -236.3359375 372.46875 C-236.80992733 368.36083811 -236.85364537 366.21558953 -234.46484375 362.76953125 C-229.98679453 359.47668357 -226.31587981 359.76772521 -220.8984375 359.90625 C-219.96966797 359.89529297 -219.04089844 359.88433594 -218.08398438 359.87304688 C-210.66806407 359.9522204 -207.05543782 361.9099118 -201.625 367.01953125 C-200.30628906 368.38658203 -200.30628906 368.38658203 -198.9609375 369.78125 C-195.19372067 373.64052168 -191.33277576 377.29222204 -187.23046875 380.79296875 C-184.46933425 383.23529184 -181.92124939 385.87429261 -179.3359375 388.5 C-176.77676975 391.01918075 -174.07118517 393.33750593 -171.34765625 395.67578125 C-168.53334419 398.18407103 -165.91331463 400.86560858 -163.29296875 403.57421875 C-161.09116635 405.70570411 -158.73785012 407.567986 -156.3359375 409.46875 C-156.33182861 408.16204346 -156.32771973 406.85533691 -156.32348633 405.5090332 C-156.30168946 400.65381605 -156.24739348 395.79940866 -156.18334961 390.94458008 C-156.16017454 388.84472422 -156.14577506 386.7447522 -156.14038086 384.64477539 C-156.13108787 381.62312475 -156.09008904 378.60329983 -156.04296875 375.58203125 C-156.0469014 374.64539139 -156.05083405 373.70875153 -156.05488586 372.74372864 C-155.96105585 368.53763766 -155.67672808 366.0451472 -153.50634766 362.37426758 C-148.72522524 359.50066058 -144.38160296 359.79891607 -138.90234375 359.8671875 C-137.23630348 359.85517807 -137.23630348 359.85517807 -135.53660583 359.84292603 C-131.99017825 359.81985472 -128.44489603 359.82932079 -124.8984375 359.84375 C-121.35576392 359.84759942 -117.81359752 359.84413835 -114.27098083 359.82315063 C-112.06842569 359.81107867 -109.86572822 359.81370202 -107.66322327 359.83285522 C-100.06049833 359.80525487 -100.06049833 359.80525487 -93.3359375 356.46875 C-90.23896712 352.36867299 -89.95529998 349.26186232 -89.93721008 344.18583679 C-89.93056326 343.46285945 -89.92391643 342.73988211 -89.91706818 341.99499637 C-89.89845065 339.57814453 -89.90104256 337.16178831 -89.90356445 334.74487305 C-89.89454651 333.01016033 -89.88421921 331.275454 -89.87268066 329.54075623 C-89.84508826 324.83457403 -89.83582309 320.12851266 -89.82982659 315.42226005 C-89.82044878 310.50279684 -89.79424586 305.58342409 -89.76982117 300.66401672 C-89.7261362 291.34980176 -89.69760149 282.03560434 -89.67449778 272.72131807 C-89.64745684 262.11675696 -89.60354463 251.51228676 -89.55820906 240.90779054 C-89.46533417 219.09482592 -89.39366643 197.28183409 -89.3359375 175.46875 C-90.0137175 175.27181046 -90.6914975 175.07487091 -91.38981628 174.8719635 C-92.28364517 174.6087883 -93.17747406 174.3456131 -94.09838867 174.07446289 C-95.42443367 173.68624107 -95.42443367 173.68624107 -96.77726746 173.29017639 C-119.51339932 165.99104894 -138.64865117 146.47068968 -149.40161133 125.81347656 C-151.65657815 121.36128703 -153.44530314 117.38388637 -154.3359375 112.46875 C-156.10844439 112.47428076 -156.10844439 112.47428076 -157.91675949 112.47992325 C-185.95567301 112.56652026 -213.99457987 112.6324948 -242.03359835 112.67301132 C-245.48333663 112.67801425 -248.93307464 112.68319153 -252.3828125 112.68847656 C-253.41300073 112.69005043 -253.41300073 112.69005043 -254.46400085 112.69165608 C-265.59023445 112.70907005 -276.71638554 112.74061315 -287.84257016 112.77736118 C-299.25571607 112.81474313 -310.66879496 112.83668052 -322.08200383 112.84510398 C-328.49406995 112.85032792 -334.9059488 112.86264266 -341.31795502 112.89167023 C-347.34909826 112.91875325 -353.3799765 112.92720934 -359.41117477 112.92118073 C-361.6283881 112.92228415 -363.84560998 112.93028005 -366.06277084 112.9455719 C-369.08325285 112.96538815 -372.10272605 112.96071947 -375.12322998 112.94976807 C-376.00649672 112.96141943 -376.88976346 112.9730708 -377.79979587 112.98507524 C-383.72191242 112.92678547 -383.72191242 112.92678547 -386.85313797 110.59103012 C-388.61852157 108.06429711 -389.26053171 106.56038747 -389.3359375 103.46875 C-387.14190765 98.87173507 -387.14190765 98.87173507 -384.3359375 97.46875 C-381.40061815 97.37269035 -378.48908602 97.33866297 -375.55355835 97.34849548 C-374.17279615 97.34721385 -374.17279615 97.34721385 -372.76413977 97.34590632 C-369.66093704 97.34425124 -366.55778764 97.34977337 -363.45458984 97.35522461 C-361.23757427 97.3555065 -359.02055861 97.35534871 -356.80354309 97.3547821 C-350.7687219 97.35449421 -344.73392043 97.3603897 -338.69910383 97.36735606 C-332.39833138 97.37359088 -326.09755851 97.3741935 -319.79678345 97.37538147 C-309.21608138 97.37814033 -298.6353858 97.3843942 -288.0546875 97.39331055 C-277.15527381 97.40248594 -266.25586209 97.40956615 -255.35644531 97.41381836 C-254.34912248 97.41421244 -254.34912248 97.41421244 -253.32144968 97.41461449 C-249.95257493 97.4159195 -246.58370017 97.41718322 -243.21482539 97.41842639 C-215.25519103 97.42888993 -187.29556478 97.44648865 -159.3359375 97.46875 C-159.49761414 96.8624324 -159.65929077 96.25611481 -159.8258667 95.63142395 C-165.14493463 73.07884959 -158.01749281 46.43873355 -146.11328125 27.13671875 C-143.39367688 23.05432362 -140.49635887 19.21885167 -137.3359375 15.46875 C-136.33626953 14.25058594 -136.33626953 14.25058594 -135.31640625 13.0078125 C-102.50469721 -25.4203152 -39.68956413 -31.33916905 0 0 Z " fill="#010100" transform="translate(473.3359375,47.53125)"/>
<path d="M0 0 C0.82593155 -0.00807175 1.6518631 -0.01614349 2.50282288 -0.02445984 C4.24689658 -0.03826501 5.99099689 -0.04900305 7.73510742 -0.05688477 C9.51676357 -0.06842968 11.29838446 -0.08892102 13.07983398 -0.1184082 C15.65762776 -0.1610656 18.23439721 -0.17724819 20.8125 -0.1875 C21.60534897 -0.20500809 22.39819794 -0.22251617 23.21507263 -0.24055481 C27.13393324 -0.22521716 29.05491422 -0.01783299 32.47875977 2.08129883 C34.47265625 4.23828125 34.47265625 4.23828125 35.03515625 7.17578125 C34.32527439 11.04069359 33.32318664 12.53113657 30.47265625 15.23828125 C27.58273379 15.71881643 25.26699093 15.89108143 22.3828125 15.83984375 C21.60127304 15.84785004 20.81973358 15.85585632 20.01451111 15.86410522 C17.52086375 15.88715782 15.02884721 15.87772208 12.53515625 15.86328125 C10.04534102 15.85942817 7.55624768 15.86292286 5.06651306 15.88388062 C3.5194883 15.89592638 1.9722608 15.89337164 0.42530823 15.87417603 C-4.13408695 15.89773611 -6.80592766 16.63109509 -10.52734375 19.23828125 C-11.18734375 19.23828125 -11.84734375 19.23828125 -12.52734375 19.23828125 C-14.95321307 23.97318149 -14.81311002 28.3419076 -14.79476929 33.53086853 C-14.7993004 34.4701243 -14.80383151 35.40938007 -14.80849993 36.37709814 C-14.8211658 39.5261069 -14.81952215 42.67494319 -14.81787109 45.82397461 C-14.8238549 48.08096032 -14.8306601 50.33794397 -14.83822632 52.59492493 C-14.85590675 58.72707848 -14.86058251 64.85917622 -14.86185789 70.9913528 C-14.86375618 76.10833501 -14.87111276 81.2253042 -14.87820208 86.3422814 C-14.89356029 97.72285962 -14.8995393 109.10340325 -14.89819138 120.48398834 C-14.89811147 121.16659396 -14.89803155 121.84919959 -14.89794922 122.55249023 C-14.89786746 123.23593026 -14.8977857 123.91937029 -14.89770146 124.62352062 C-14.89688833 135.70283409 -14.91603399 146.78201169 -14.94422595 157.86128586 C-14.972953 169.24071208 -14.98640009 180.62005138 -14.9850384 191.99952227 C-14.98452799 198.38696503 -14.99025522 204.77425397 -15.0113945 211.16166496 C-15.03072818 217.16746362 -15.03093456 223.17296091 -15.01636124 229.17877007 C-15.01426612 231.38384948 -15.01901564 233.58894751 -15.03108215 235.7939949 C-15.04648059 238.8025898 -15.03726186 241.81013853 -15.02182007 244.81871033 C-15.03725076 246.12975602 -15.03725076 246.12975602 -15.05299318 247.46728748 C-14.99214586 252.82618979 -14.25559211 256.09386959 -10.52734375 260.23828125 C-6.5232062 262.6350954 -2.4084396 262.51972373 2.13952637 262.48983765 C3.28607925 262.49429285 3.28607925 262.49429285 4.45579481 262.49883807 C7.01292419 262.50646685 9.56982312 262.49998872 12.12695312 262.49365234 C13.96192073 262.49640272 15.79688715 262.5000829 17.6318512 262.50462341 C21.58128976 262.51273212 25.53067172 262.51490472 29.4801178 262.51267624 C35.72405629 262.50984374 41.96788157 262.52419216 48.21179199 262.54165649 C65.96620999 262.58869146 83.72062012 262.61263025 101.47509766 262.61914062 C111.28226044 262.62288861 121.08929501 262.64089541 130.89640284 262.67423499 C137.10456419 262.69447505 143.31239551 262.69680672 149.52057648 262.68595481 C153.38097021 262.68335095 157.24117102 262.6973355 161.10151482 262.71603584 C162.89257543 262.72136599 164.6836714 262.71984703 166.47471809 262.71100044 C168.91887031 262.69990087 171.36171408 262.71328438 173.80578613 262.73275757 C174.87023492 262.71907058 174.87023492 262.71907058 175.95618773 262.70510709 C180.71261316 262.77891159 183.1465921 263.85246268 186.47265625 267.23828125 C187.47265625 269.67578125 187.47265625 269.67578125 187.47265625 272.23828125 C186.27675451 274.9447957 185.28210025 276.68393632 182.82461071 278.36693954 C179.56845852 279.57326443 176.45382862 279.51401411 173.02888489 279.49224854 C172.27636009 279.49536852 171.5238353 279.4984885 170.74850672 279.50170302 C168.22524332 279.50968431 165.70222031 279.50335877 163.17895508 279.49707031 C161.37032938 279.49978023 159.56170478 279.50334117 157.75308228 279.50769043 C152.83755491 279.51681984 147.92211136 279.51326703 143.0065825 279.50693226 C137.86048038 279.50187126 132.71438548 279.50656435 127.56828308 279.50970459 C118.92042757 279.51334558 110.27260619 279.50854337 101.62475586 279.49902344 C91.63759294 279.48815583 81.65051179 279.49165161 71.66335088 279.50267625 C63.08484951 279.51176588 54.5063727 279.51302568 45.92786807 279.50779891 C40.80630224 279.50468622 35.68477478 279.50425026 30.56321144 279.51087189 C25.74267524 279.51666847 20.92224384 279.5126062 16.1017189 279.50108337 C14.33652228 279.4984484 12.57131677 279.49918193 10.80612373 279.5036087 C-13.80412408 279.55961392 -13.80412408 279.55961392 -23.25390625 270.6015625 C-29.5035885 263.75154131 -30.97537319 257.45420601 -30.9150238 248.41493225 C-30.92040934 247.44271034 -30.92579488 246.47048843 -30.93134362 245.46880525 C-30.94561954 242.22004051 -30.93852024 238.97168342 -30.93139648 235.72290039 C-30.93710021 233.39004692 -30.94406448 231.05719625 -30.95219421 228.72434998 C-30.97013996 222.39381049 -30.96895456 216.06340951 -30.96325183 209.73285222 C-30.95977116 203.77803024 -30.96772254 197.82322946 -30.97461248 191.86841207 C-30.98833031 179.35444498 -30.98290484 166.84054045 -30.97142727 154.32657479 C-30.96149503 142.88661029 -30.97443659 131.44680752 -30.99836146 120.00686795 C-31.02276334 108.24994187 -31.0323577 96.49309109 -31.02570873 84.73614019 C-31.02233712 78.13964086 -31.02476808 71.54327516 -31.04195976 64.94679451 C-31.05741995 58.74396679 -31.05348323 52.54144806 -31.03465462 46.33863258 C-31.03096628 44.06344411 -31.03408428 41.78823278 -31.04454041 39.51306534 C-31.05773464 36.40455846 -31.04621585 33.29707683 -31.02854919 30.18861389 C-31.0381542 29.29064577 -31.04775921 28.39267764 -31.05765527 27.46749836 C-30.95675356 18.82459155 -27.64737622 12.35831372 -21.52734375 6.23828125 C-14.29509585 1.44270469 -8.63202242 0.08021929 0 0 Z " fill="#000000" transform="translate(30.52734375,144.76171875)"/>
<path d="M0 0 C3.88483819 2.19426777 7.29667016 4.50411515 10.62109375 7.48046875 C11.28625 8.03089844 11.95140625 8.58132812 12.63671875 9.1484375 C19.82876835 15.5855964 25.98069803 25.82663575 26.7980957 35.59594727 C27.12623744 47.71627411 26.65873514 57.07812621 20.74609375 67.91796875 C19.31799399 70.36181877 19.31799399 70.36181877 20.3515625 72.43359375 C21.65205492 74.53038769 23.06414485 76.05680702 24.80859375 77.79296875 C27.33069388 80.66039311 27.61134847 81.18811026 27.74609375 85.23046875 C26.62109375 88.48046875 26.62109375 88.48046875 24.99609375 90.48046875 C21.35367799 92.01411749 19.39702623 91.63244815 15.62109375 90.48046875 C13.02425985 88.36359443 10.80170387 86.01899057 8.62109375 83.48046875 C4.09478923 85.24343156 -0.27128766 87.28205939 -4.66015625 89.359375 C-14.34368329 93.35243859 -27.6176855 92.96222152 -37.37890625 89.41796875 C-52.31303448 82.72206239 -61.35649268 72.57052762 -67.37890625 57.48046875 C-70.11032317 43.55341851 -69.44739464 30.19306183 -61.8046875 17.9609375 C-47.57052175 -1.51564826 -22.62341394 -10.50267721 0 0 Z " fill="#030302" transform="translate(116.37890625,240.51953125)"/>
<path d="M0 0 C75.57 0 151.14 0 229 0 C231.31 5.28 233.62 10.56 236 16 C248.27460423 36.45767372 265.31122299 50.80592951 287.25268555 60.1262207 C287.90217918 60.40328102 288.55167282 60.68034134 289.22084808 60.96579742 C290.81342728 61.64497148 292.40664955 62.32263728 294 63 C294.09342972 85.84388585 294.16397258 108.6877402 294.20724869 131.53177834 C294.22787638 142.13860078 294.25600101 152.74530452 294.30175781 163.35205078 C294.34161915 172.59659096 294.36743131 181.84104519 294.37635398 191.08566892 C294.3815699 195.98093327 294.39383362 200.87595169 294.42292023 205.77113724 C294.45007816 210.37908302 294.45844421 214.98668165 294.45243073 219.59469986 C294.45353079 221.28538398 294.4614825 222.97607975 294.4768219 224.66669464 C294.49675641 226.97716573 294.49192751 229.28633027 294.48101807 231.59683228 C294.48470524 232.88918604 294.48839241 234.1815398 294.49219131 235.5130558 C293.9102732 239.63567225 292.58704793 241.77605962 290 245 C284.73420423 248.8530213 279.24352295 248.29995573 273 248 C273.48699371 247.15824219 273.97398743 246.31648437 274.47573853 245.44921875 C277.09089566 239.27945381 276.41723036 232.3931798 276.38818359 225.8125 C276.3922525 224.2661909 276.39759617 222.7198847 276.40411377 221.17358398 C276.41775526 216.98763865 276.41250187 212.80191588 276.40297651 208.6159668 C276.39536347 204.22834691 276.40243009 199.84074566 276.40713501 195.453125 C276.41258778 188.08590282 276.40541353 180.71877096 276.39111328 173.3515625 C276.37478768 164.84285239 276.38007652 156.33435796 276.3965925 147.82565308 C276.41022103 140.51079466 276.41212035 133.19600105 276.40427649 125.88113403 C276.39960748 121.5164232 276.39895383 117.15181364 276.40888596 112.78710938 C276.41757326 108.6830133 276.41150166 104.57919441 276.39420319 100.47512817 C276.39024774 98.97193867 276.39135622 97.46872571 276.39799118 95.96554565 C276.53717131 83.768162 276.53717131 83.768162 270.75 73.3515625 C267.65263782 70.70296587 264.44053323 68.54347062 261 66.375 C236.36140389 50.34930551 221.22843718 29.27583249 211 2 C106.555 1.505 106.555 1.505 0 1 C0 0.67 0 0.34 0 0 Z " fill="#91D09F" transform="translate(90,160)"/>
<path d="M0 0 C5.87902376 2.24537663 10.53494782 7.90433503 14 13 C13.5359375 13.804375 13.5359375 13.804375 13.0625 14.625 C11.53505412 18.03929078 10.37282395 21.11821967 11.60717773 24.82177734 C12.57446329 26.87539898 13.61697671 28.87330601 14.6875 30.875 C23.52281994 48.67647649 26.52472111 69.55824333 21 89 C12.47371925 113.86390565 -2.04796442 132.9517496 -25.88818359 144.64550781 C-37.46088771 150.15210453 -48.89269886 152.39558035 -61.6875 152.375 C-62.73824707 152.37338867 -63.78899414 152.37177734 -64.87158203 152.37011719 C-73.48889361 152.23512014 -80.85729942 150.93956612 -89 148 C-89.87011719 147.72285156 -90.74023438 147.44570312 -91.63671875 147.16015625 C-99.45775104 144.42720294 -106.17782251 139.6005462 -113 135 C-111 134 -111 134 -108.54296875 134.77734375 C-107.43566406 135.16019531 -106.32835937 135.54304687 -105.1875 135.9375 C-88.82602625 140.84594212 -67.90110685 140.17813705 -52 134 C-50.97777344 133.63777344 -49.95554687 133.27554688 -48.90234375 132.90234375 C-36.71391874 128.26287875 -26.19583257 121.19583257 -17 112 C-16.22914063 111.22914063 -15.45828125 110.45828125 -14.6640625 109.6640625 C1.34280909 92.78309554 9.64643225 70.83552239 9.4375 47.6875 C9.42722778 45.92200806 9.42722778 45.92200806 9.41674805 44.12084961 C9.16102733 30.19221172 5.71676498 18.69744058 0 6 C-0.67457108 4.33651688 -1.34372705 2.67078665 -2 1 C-1.34 0.67 -0.68 0.34 0 0 Z " fill="#FCCD63" transform="translate(474,60)"/>
<path d="M0 0 C6.87476838 5.4120517 12.01305078 11.63539761 13.9375 20.3125 C14.7844914 29.06183384 14.98017498 36.74848753 9.9375 44.3125 C9.47859375 43.91417969 9.0196875 43.51585937 8.546875 43.10546875 C7.28239219 42.01365692 6.01264013 40.9279244 4.73828125 39.84765625 C3.43111675 38.7333056 2.14598712 37.59294284 0.875 36.4375 C-1.91019137 34.82029211 -3.90521494 34.90944233 -7.0625 35.3125 C-9.0625 36.3125 -9.0625 36.3125 -10.0625 38.3125 C-10.90002425 41.09532531 -10.90002425 41.09532531 -10.0625 44.3125 C-8.44484681 46.53677314 -6.69161374 48.49570851 -4.7890625 50.48046875 C-3.0625 52.3125 -3.0625 52.3125 -1.0625 55.3125 C-9.32882549 60.50847602 -16.47728595 61.10624414 -26.0625 60.3125 C-29.46766445 59.47868407 -32.12178316 58.20216216 -35.0625 56.3125 C-35.84367187 55.81492187 -36.62484375 55.31734375 -37.4296875 54.8046875 C-43.07102021 50.82801035 -46.29614681 46.60067634 -49.0625 40.3125 C-49.42472656 39.55324219 -49.78695312 38.79398437 -50.16015625 38.01171875 C-52.83919894 29.99778585 -52.12686247 20.4273533 -48.625 12.8125 C-44.03770151 4.90558738 -37.62877524 -1.0108798 -28.9375 -4.06640625 C-18.37882597 -6.34742415 -9.32099803 -5.13606014 0 0 Z " fill="#B1E39D" transform="translate(114.0625,256.6875)"/>
<path d="M0 0 C1.20422104 0.00233139 2.40844208 0.00466278 3.64915466 0.00706482 C6.19187516 0.01679836 8.73457408 0.03857603 11.27709961 0.0715332 C15.17268918 0.12095541 19.0670158 0.13301534 22.96289062 0.13867188 C25.43360721 0.15275742 27.90431281 0.16896165 30.375 0.1875 C32.12509117 0.19554405 32.12509117 0.19554405 33.91053772 0.20375061 C35.53758888 0.2277317 35.53758888 0.2277317 37.19750977 0.25219727 C38.6271682 0.26815697 38.6271682 0.26815697 40.08570862 0.28443909 C42.77225577 0.57493911 44.36752441 1.08439448 46.62109375 2.55859375 C48.71709218 5.7025914 48.96720141 6.82438211 48.31201172 10.453125 C46.79259267 15.08332637 43.86412769 19.03100536 41.18359375 23.05859375 C40.54832764 24.03401123 39.91306152 25.00942871 39.25854492 26.0144043 C37.392781 28.87156871 35.51036193 31.71693161 33.62109375 34.55859375 C33.13833984 35.28771973 32.65558594 36.0168457 32.15820312 36.76806641 C30.13282505 39.82511194 28.09612452 42.87425329 26.05078125 45.91796875 C18.3937903 57.34387989 11.05718266 68.98828043 3.62109375 80.55859375 C5.44483521 80.5726123 5.44483521 80.5726123 7.30541992 80.58691406 C11.8251583 80.62684793 16.34421843 80.69261629 20.86352539 80.76611328 C22.81786371 80.79430319 24.77231561 80.81552758 26.72680664 80.82958984 C29.53981598 80.85104682 32.35146246 80.8977107 35.1640625 80.94921875 C36.03508102 80.95044739 36.90609955 80.95167603 37.80351257 80.95294189 C41.86550311 81.05056468 44.12025288 81.26041798 47.67700195 83.37792969 C49.62109375 85.55859375 49.62109375 85.55859375 50.18359375 89.05859375 C49.52834624 93.13568936 48.82394813 94.06690744 45.62109375 96.55859375 C42.89588928 97.07325745 42.89588928 97.07325745 39.73852539 97.09204102 C38.55372086 97.10787735 37.36891632 97.12371368 36.14820862 97.14002991 C34.87211227 97.13507004 33.59601593 97.13011017 32.28125 97.125 C30.30988319 97.13429787 30.30988319 97.13429787 28.2986908 97.14378357 C25.51869171 97.15418277 22.73920462 97.14963473 19.95922852 97.13500977 C16.40341563 97.11783094 12.84922006 97.14130475 9.29358768 97.17649937 C5.89354707 97.20379388 2.4938951 97.19373555 -0.90625 97.1875 C-2.18032211 97.20075821 -3.45439423 97.21401642 -4.76707458 97.22767639 C-14.58927506 97.12405078 -14.58927506 97.12405078 -17.72094727 94.33178711 C-19.56163475 91.25295201 -20.08853492 90.05563843 -19.37890625 86.55859375 C-18.05639648 83.96923828 -18.05639648 83.96923828 -16.1875 81.19140625 C-15.4975293 80.15258301 -14.80755859 79.11375977 -14.09667969 78.04345703 C-13.3366933 76.92343152 -12.57659945 75.80347891 -11.81640625 74.68359375 C-11.03817844 73.5188737 -10.26117544 72.35333442 -9.48535156 71.18701172 C-7.89521077 68.79853977 -6.29990799 66.41364856 -4.70068359 64.03125 C-1.29406758 58.94762001 2.0372232 53.8151007 5.37109375 48.68359375 C6.586995 46.81754894 7.80313846 44.95166193 9.01953125 43.0859375 C9.61088867 42.17827637 10.20224609 41.27061523 10.81152344 40.33544922 C12.04609695 38.44094852 13.28114327 36.54675586 14.51660156 34.65283203 C16.34411271 31.8512452 18.17026463 29.04877698 19.99609375 26.24609375 C20.55006836 25.39740723 21.10404297 24.5487207 21.67480469 23.67431641 C22.18043945 22.89749512 22.68607422 22.12067383 23.20703125 21.3203125 C23.65095215 20.63928467 24.09487305 19.95825684 24.55224609 19.2565918 C25.67007858 17.54229558 25.67007858 17.54229558 26.62109375 15.55859375 C24.83493652 15.59001465 24.83493652 15.59001465 23.01269531 15.62207031 C18.59224486 15.69450337 14.17184679 15.74040547 9.75097656 15.77832031 C7.8381264 15.79842827 5.92533764 15.82571882 4.01269531 15.86035156 C1.26221564 15.90890624 -1.48745102 15.93157033 -4.23828125 15.94921875 C-5.09258728 15.96986389 -5.94689331 15.99050903 -6.8270874 16.01177979 C-12.75146288 16.01401568 -12.75146288 16.01401568 -15.91503906 13.71777344 C-17.94749325 10.71993741 -18.03125574 9.11027432 -17.37890625 5.55859375 C-12.99269692 -1.05628411 -7.18788032 -0.12054227 0 0 Z " fill="#030403" transform="translate(301.37890625,235.44140625)"/>
<path d="M0 0 C1.66835022 1.17781067 1.66835022 1.17781067 3 3 C3.37181091 5.66069031 3.37181091 5.66069031 3.36889648 8.9050293 C3.37577988 10.12026779 3.38266327 11.33550629 3.38975525 12.58757019 C3.38359695 13.90316422 3.37743866 15.21875824 3.37109375 16.57421875 C3.37778906 17.94083167 3.38636733 19.30743656 3.39674377 20.67402649 C3.43679283 26.47334351 3.43805661 32.27258916 3.43579102 38.07202148 C3.43573964 41.62239375 3.45504731 45.17227563 3.48512459 48.7225132 C3.4958741 50.72088425 3.48382367 52.71933643 3.47129822 54.71769714 C3.53819964 62.92408081 4.16317197 68.85375036 9.9375 75.09375 C16.1612603 79.33722293 21.565247 80.28585455 29 79 C34.03005709 77.36471395 38.47433123 75.30248211 41.5625 70.875 C43.66487245 66.67025511 44.12398565 63.68454623 44.12597656 59.03149414 C44.12978333 57.80334488 44.13359009 56.57519562 44.13751221 55.30982971 C44.137803 54.32631122 44.137803 54.32631122 44.13809967 53.32292366 C44.14152103 50.56212081 44.1628878 47.80155226 44.18333054 45.04083157 C44.22133229 39.90259578 44.2526127 34.76461317 44.25048828 29.6262207 C44.24970133 26.04977737 44.27305236 22.47419606 44.3123703 18.89797783 C44.32283205 17.53648186 44.32435288 16.17488642 44.31671906 14.81337166 C44.30710087 12.90819283 44.33104787 11.00293421 44.35644531 9.09790039 C44.36009094 8.01440811 44.36373657 6.93091583 44.36749268 5.81459045 C45 3 45 3 47.34881592 0.62278748 C50 -1 50 -1 53.0625 -1.0625 C56.765714 0.27696038 57.84851797 1.73319579 60 5 C60.50793457 7.83631897 60.50793457 7.83631897 60.51757812 10.97680664 C60.53018677 12.15896255 60.54279541 13.34111847 60.55578613 14.55909729 C60.54768921 15.82994675 60.53959229 17.1007962 60.53125 18.41015625 C60.53699036 20.38779213 60.53699036 20.38779213 60.54284668 22.40538025 C60.54873665 25.19712073 60.5402056 27.98834859 60.52148438 30.7800293 C60.49884921 34.32485795 60.51172036 37.86846463 60.53577423 41.41324711 C60.55038011 44.16660899 60.54555702 46.91969197 60.53526306 49.67306328 C60.53136178 51.60480935 60.54333992 53.53656706 60.55578613 55.46827698 C60.43527821 66.97769784 58.38000363 76.69460495 50.12890625 85.09765625 C41.14984806 93.12114495 30.58921547 95.81888574 18.6328125 95.54296875 C9.97939063 94.24960785 1.24240985 89.50463962 -4.60546875 82.9609375 C-9.53313499 76.0318382 -12.09968931 69.39579619 -12.17700195 60.93383789 C-12.18983719 59.70899185 -12.20267242 58.48414581 -12.21589661 57.22218323 C-12.22328354 55.90233932 -12.23067047 54.58249542 -12.23828125 53.22265625 C-12.24235678 52.54854643 -12.2464323 51.87443661 -12.25063133 51.17989922 C-12.27144598 47.6144835 -12.28576974 44.0491058 -12.29516602 40.48364258 C-12.30624518 36.8070886 -12.3406745 33.13113739 -12.38033772 29.45479679 C-12.40650407 26.62115876 -12.41485759 23.78766477 -12.41844749 20.95391655 C-12.42566898 18.94144442 -12.45210125 16.92907081 -12.47883606 14.91676331 C-12.47591049 13.68876511 -12.47298492 12.46076691 -12.4699707 11.19555664 C-12.47583694 10.11730118 -12.48170319 9.03904572 -12.48774719 7.92811584 C-11.8817742 4.29024947 -10.53303083 2.62930662 -8 0 C-5.06317146 -1.46841427 -3.13175678 -0.76696084 0 0 Z " fill="#040503" transform="translate(175,237)"/>
<path d="M0 0 C7.39926875 5.28697751 13.56775158 13.00826919 16.05859375 21.859375 C17.86293787 32.76527793 17.35949917 42.89809686 11.5 52.52734375 C4.7269789 61.86808659 -2.49151234 66.54199116 -13.5 69.52734375 C-13.47905273 70.31906982 -13.45810547 71.1107959 -13.43652344 71.92651367 C-13.35324533 75.52249393 -13.30130109 79.11827111 -13.25 82.71484375 C-13.19972656 84.58366211 -13.19972656 84.58366211 -13.1484375 86.49023438 C-13.13554687 87.69228516 -13.12265625 88.89433594 -13.109375 90.1328125 C-13.08842773 91.23778076 -13.06748047 92.34274902 -13.04589844 93.48120117 C-13.60791403 97.25123802 -14.79101634 98.8861751 -17.5 101.52734375 C-21 102.15234375 -21 102.15234375 -24.5 101.52734375 C-27.65972258 98.61928362 -28.44810983 96.91840472 -29.01757812 92.62670898 C-29.04380779 91.11333892 -29.0471452 89.59945139 -29.03125 88.0859375 C-29.0350769 87.28124527 -29.03890381 86.47655304 -29.04284668 85.6474762 C-29.04556025 83.95222721 -29.03823792 82.25693595 -29.02148438 80.56176758 C-29.00003658 77.96926587 -29.021317 75.37952616 -29.046875 72.78710938 C-29.04423217 71.13671265 -29.03910812 69.48631764 -29.03125 67.8359375 C-29.03934692 67.06293808 -29.04744385 66.28993866 -29.05578613 65.49351501 C-28.99384039 61.93492526 -28.79914729 59.91936584 -26.61035156 57.05102539 C-24.21770243 55.32352386 -22.6596863 54.89800443 -19.75 54.52734375 C-12.53998574 53.27619422 -7.58366235 51.33032859 -3.0625 45.40234375 C1.36148826 39.01347788 1.21296248 33.2207063 0.5 25.52734375 C-1.42779735 19.18543098 -4.92900041 15.59825403 -10.6328125 12.40234375 C-16.80426946 9.51028024 -23.9283872 9.23841461 -30.3359375 11.55078125 C-36.45833769 14.87857234 -40.23736019 18.89245309 -42.5 25.52734375 C-42.82973518 27.85823034 -42.99238233 30.15978464 -43.14453125 32.5078125 C-43.5 34.52734375 -43.5 34.52734375 -45.6875 37.58984375 C-48.5 39.52734375 -48.5 39.52734375 -51.5625 40.08984375 C-55.20100252 39.39310922 -56.21077789 38.39734102 -58.5 35.52734375 C-60.27302448 26.63614744 -57.67887796 18.65402226 -53.02734375 11.15234375 C-40.56360294 -6.29100037 -18.59653245 -10.9545199 0 0 Z " fill="#030301" transform="translate(433.5,68.47265625)"/>
<path d="M0 0 C1.66615295 1.02467346 1.66615295 1.02467346 3 3 C3.30140807 5.85692905 3.42002169 8.49678227 3.40405273 11.35522461 C3.41091599 12.20755173 3.41777924 13.05987885 3.42485046 13.93803406 C3.44317381 16.75963939 3.43927305 19.58069161 3.43359375 22.40234375 C3.43815301 24.36145713 3.44345781 26.32056891 3.44947815 28.27967834 C3.45842021 32.38793429 3.4559738 36.49599596 3.44604492 40.60424805 C3.43455589 45.87161331 3.45476022 51.13830813 3.48396206 56.40558529 C3.50229996 60.45219694 3.50203638 64.49864723 3.49632454 68.54528999 C3.49617102 70.48738101 3.50224071 72.42948275 3.51461601 74.37153435 C3.52947817 77.08657872 3.51888435 79.80037578 3.50170898 82.51538086 C3.51621094 83.72103699 3.51621094 83.72103699 3.53100586 84.9510498 C3.48373834 88.51557222 3.30288708 90.59099551 1.15223694 93.49513245 C-1 95 -1 95 -3.9375 95.5625 C-8.12177879 94.793959 -9.38317044 93.32451512 -12 90 C-12.48983047 87.04119502 -12.67599463 84.66141626 -12.63110352 81.70898438 C-12.63825882 80.88723221 -12.64541412 80.06548004 -12.65278625 79.21882629 C-12.66965733 76.50989728 -12.65028091 73.80262696 -12.62890625 71.09375 C-12.6297351 69.20715193 -12.63219508 67.32055393 -12.63621521 65.43395996 C-12.63907212 61.48293278 -12.62438254 57.53247282 -12.59692383 53.58154297 C-12.56284121 48.52052926 -12.56886026 43.46052972 -12.5875864 38.39946747 C-12.5981619 34.50461394 -12.58921358 30.60999583 -12.57420158 26.71516418 C-12.56902335 24.84927571 -12.56949723 22.98336261 -12.57574654 21.11747742 C-12.58120542 18.50812024 -12.56080306 15.90020808 -12.53344727 13.29101562 C-12.53997314 12.52203445 -12.54649902 11.75305328 -12.55322266 10.96076965 C-12.46543076 6.0286857 -11.53484631 3.45482947 -8 0 C-5.06317146 -1.46841427 -3.13175678 -0.76696084 0 0 Z " fill="#040503" transform="translate(264,237)"/>
<path d="M0 0 C3.4375 1 3.4375 1 5.4375 2.625 C6.90731805 6.11581787 6.42163921 8.39148956 5.4375 12 C3.31878452 14.34572071 2.0349873 14.89543972 -1.0625 15.4375 C-3.5625 15 -3.5625 15 -5.875 13.4375 C-8.20476201 10.07228821 -8.13539582 8.01027077 -7.5625 4 C-5.30132583 0.38212133 -4.292718 0 0 0 Z " fill="#0E0C07" transform="translate(413.5625,179)"/>
</svg>
